<svg width="96" height="96" viewBox="0 0 96 96" xmlns="http://www.w3.org/2000/svg" fill="none">
  <rect x="4" y="4" width="88" height="88" rx="24" fill="#e8fff0"/>
  <path d="M23 42C23 31.5 31.5 23 42 23C50 23 56.9 27.9 59.7 34.9C60.6 34.6 61.6 34.5 62.6 34.5C67.5 34.5 71.6 38.4 71.6 43.3C71.6 43.8 71.6 44.2 71.5 44.7C75.4 46.2 78 49.9 78 54.1C78 59.8 73.3 64.5 67.6 64.5H43.8C32.4 64.5 23 55.1 23 43.7V42Z" fill="#2ea043"/>
  <rect x="47" y="49" width="27" height="27" rx="8" fill="#23a043"/>
  <path d="M56 55.5V69H66V55.5" stroke="#ffffff" stroke-width="4" stroke-linecap="round" stroke-linejoin="round"/>
</svg>
