<svg width="96" height="96" viewBox="0 0 96 96" xmlns="http://www.w3.org/2000/svg" fill="none">
  <rect x="4" y="4" width="88" height="88" rx="24" fill="#ecfff0"/>
  <path d="M24 49.5C24 37.1 34.1 27 46.5 27C53.7 27 60.1 30.4 64.2 35.8C66 34.5 68.3 33.7 70.8 33.7C76.9 33.7 81.8 38.6 81.8 44.7C81.8 49.6 78.6 53.8 74.1 55.2C74.2 55.9 74.2 56.6 74.2 57.3C74.2 66.6 66.7 74.1 57.4 74.1H48.1C34.8 74.1 24 63.3 24 50V49.5Z" fill="#8ad67c"/>
  <path d="M39 56.5C43 49.1 48.6 44.1 57.1 41.8" stroke="#ffffff" stroke-width="5" stroke-linecap="round"/>
  <circle cx="58" cy="42" r="4.6" fill="#ffffff"/>
</svg>
